<?xml version="1.0" encoding="utf-8"?>
<!-- Generator: Adobe Illustrator 16.0.0, SVG Export Plug-In . SVG Version: 6.00 Build 0)  -->
<!DOCTYPE svg PUBLIC "-//W3C//DTD SVG 1.1//EN" "http://www.w3.org/Graphics/SVG/1.1/DTD/svg11.dtd">
<svg version="1.1" id="图层_1" xmlns="http://www.w3.org/2000/svg" xmlns:xlink="http://www.w3.org/1999/xlink" x="0px" y="0px"
	 width="180px" height="180px" viewBox="0 0 180 180" enable-background="new 0 0 180 180" xml:space="preserve">
<path fill="#D5AA44" d="M129.771,40.816l11.094-12.325h-19.104l-4.932-8.012c0,0-12.016,8.012-35.743-1.848
	c0,0,4.006,4.621,6.778,6.471c0,0-73.027,8.01-85.661,69.638c0,0-8.936,42.831,27.424,61.318c0,0-9.86-10.476-10.785-16.332
	c0,0,24.959,31.123,71.179,19.413c0,0-71.034,2.1-59.162-58.236C30.86,100.903,38.255,37.119,129.771,40.816z"/>
<path fill="#026968" d="M94.716,81.017c0,0-5.637,5.034-2.619,9.184c0,0,1.539,4.872,16.33,0c0,0,13.867-4.099,9.707-18.89
	c0,0-6.777-14.02-36.977,1.079c0,0-24.804,12.479-17.255,34.665c0,0,14.637,28.194,71.949,0c0,0,31.43-15.561,42.832-53.153
	c0,0,2.002,13.44-13.559,36.3c0,0-6.316,10.69-21.107,21.629c0,0,9.861-1.539,22.646-20.182c0,0-1.076,13.352-21.875,27.938
	c0,0-19.105,13.353-28.811,15.354c0,0,10.938,0.309,29.58-13.558c0,0-14.637,18.488-40.828,24.189c0,0-41.135,12.479-61.01-20.492
	c0,0-14.88-29.662,19.567-56.08c0,0,44.68-31.276,73.643-8.32c0,0,21.416,16.085-12.17,39.395c0,0-22.666,14.293-40.52,0
	C84.239,100.075,75.919,90.415,94.716,81.017z"/>
</svg>
